<svg
xmlns="http://www.w3.org/2000/svg"
fill="gray"
width="15px"
height="15px"
viewBox="0 0 24 24"
>
<path d="m10.56 2.12-1.93-.51a3.25 3.25 0 0 0-4 2.31l-.46 1.82a10 10 0 0 1 6.39-3.62ZM2.08 13.59l-.47 1.78a3.25 3.25 0 0 0 2.31 4l1.85.49a10 10 0 0 1-3.69-6.27ZM20.08 4.65 18 4.1a9.94 9.94 0 0 1 3.81 6.67l.57-2.14a3.25 3.25 0 0 0-2.3-3.98ZM13.39 21.86l2 .53a3.25 3.25 0 0 0 4-2.31l.56-2.1a10 10 0 0 1-6.56 3.88Z"></path>
<path d="M12 2.9a9.1 9.1 0 1 0 9.1 9.1A9.09 9.09 0 0 0 12 2.9ZM6.84 7.44a2.6 2.6 0 1 1 2.07 3 2.6 2.6 0 0 1-2.07-3Zm3.79 7.86a2.6 2.6 0 1 1-2.06-3 2.6 2.6 0 0 1 2.06 3Zm.19-3.45a1.16 1.16 0 1 1 .91 1.35 1.15 1.15 0 0 1-.91-1.35Zm6.34 4.71a2.6 2.6 0 1 1-2.07-3 2.6 2.6 0 0 1 2.07 3Zm1.32-6.88a2.6 2.6 0 1 1-2.06-3 2.6 2.6 0 0 1 2.06 3Z"></path>
</svg>