<svg
    width="16px"
    height="16px"
    viewBox="0 0 16 16"
    fill="none"
    xmlns="http://www.w3.org/2000/svg"
>
    <path
        d="M7.53125 1.85156V3.70342L9.16169 4.64418L9.43597 4.19418L8.10267 3.42564V1.85156H7.53125Z"
        fill="currentColor"
    ></path>
    <path
        d="M7.90936 0C6.01413 0 4.4827 1.49259 4.4827 3.33333H3.33984L4.82365 4.77592L4.85031 4.82962L6.38747 3.33333H5.24461C5.24461 1.90186 6.4389 0.740746 7.91127 0.740746C9.38365 0.740746 10.5779 1.90186 10.5779 3.33333C10.5779 4.76481 9.38365 5.92592 7.91127 5.92592C7.17413 5.92592 6.50936 5.63333 6.02747 5.16481L5.48842 5.68889C6.10747 6.29259 6.9627 6.66667 7.90936 6.66667C9.80461 6.66667 11.3398 5.17408 11.3398 3.33333C11.3398 1.49259 9.80461 0 7.90936 0Z"
        fill="currentColor"
    ></path>
    <path
        fill-rule="evenodd"
        clip-rule="evenodd"
        d="M11.7617 4.69535C11.2044 6.23358 9.73046 7.33266 7.99983 7.33266C6.56472 7.33266 5.30613 6.5769 4.60035 5.44167L0 10.044L1.47327 11.5162C2.30528 10.6848 3.65424 10.6848 4.48629 11.5162C5.31833 12.3477 5.3183 13.6957 4.48629 14.5271L5.95951 15.9993L15.9998 5.95464L14.5266 4.48242C13.773 5.23549 12.5953 5.30646 11.7617 4.69535ZM8.91374 10.8158L8.2303 10.1328L7.54959 10.8131L8.23303 11.496L8.91374 10.8158ZM7.5469 9.44985L6.86343 8.76689L6.18272 9.44712L6.86619 10.1301L7.5469 9.44985ZM6.17999 8.08393L5.49655 7.40094L4.81584 8.08117L5.49928 8.76416L6.17999 8.08393Z"
        fill="currentColor"
    ></path>
</svg>