<svg
    width="16px"
    height="16px"
    viewBox="0 0 17 16"
    fill="none"
    xmlns="http://www.w3.org/2000/svg"
>
    <path
        d="M2.6274 12.3007C2.56495 12.1889 2.42362 12.1517 2.31516 12.216L1.74326 12.5581V11.8773C1.74326 11.7486 1.64137 11.6436 1.51648 11.6436C1.39158 11.6436 1.28969 11.7486 1.28969 11.8773V12.5581L0.717797 12.216C0.609334 12.1517 0.468004 12.1889 0.405556 12.3007C0.343107 12.4125 0.379262 12.5581 0.487724 12.6225L1.06291 12.968L0.487724 13.3135C0.379262 13.3779 0.343107 13.5235 0.405556 13.6353C0.468004 13.7471 0.609334 13.7843 0.717797 13.72L1.28969 13.3779V14.0587C1.28969 14.1874 1.39158 14.2924 1.51648 14.2924C1.64137 14.2924 1.74326 14.1874 1.74326 14.0587V13.3779L2.31516 13.72C2.42362 13.7843 2.56495 13.7471 2.6274 13.6353C2.68985 13.5235 2.65369 13.3779 2.54523 13.3135L1.97005 12.968L2.54523 12.6225C2.65369 12.5547 2.69313 12.4125 2.6274 12.3007Z"
        fill="currentColor"
    ></path>
    <path
        d="M4.72977 13.6354C4.79222 13.7471 4.93355 13.7844 5.04202 13.72L5.61391 13.3779V14.0588C5.61391 14.1875 5.7158 14.2925 5.84069 14.2925C5.96559 14.2925 6.06748 14.1875 6.06748 14.0588V13.3779L6.63937 13.72C6.74784 13.7844 6.88917 13.7471 6.95161 13.6354C7.01406 13.5236 6.97791 13.3779 6.86944 13.3136L6.29426 12.968L6.86944 12.6225C6.97791 12.5582 7.01406 12.4125 6.95161 12.3007C6.88917 12.1889 6.74784 12.1517 6.63937 12.216L6.06748 12.5582V11.8773C6.06748 11.7486 5.96559 11.6436 5.84069 11.6436C5.7158 11.6436 5.61391 11.7486 5.61391 11.8773V12.5582L5.04202 12.2194C4.93355 12.1551 4.79222 12.1923 4.72977 12.3041C4.66733 12.4159 4.70348 12.5615 4.81194 12.6259L5.38712 12.9714L4.81194 13.3136C4.70348 13.3779 4.66733 13.5236 4.72977 13.6354Z"
        fill="currentColor"
    ></path>
    <path
        d="M4.32031 15.4078V15.8203C4.32031 15.9184 4.39919 15.9996 4.49451 15.9996H7.18637C7.28168 15.9996 7.36056 15.9184 7.36056 15.8203V15.4078C7.36056 15.3097 7.28168 15.2285 7.18637 15.2285H4.49451C4.39591 15.2285 4.32031 15.3097 4.32031 15.4078Z"
        fill="currentColor"
    ></path>
    <path
        d="M10.8841 3.85853H10.8644V2.93718C10.8644 1.33499 9.59244 -0.0267007 8.04109 0.000397634C6.53246 0.027496 5.30978 1.30112 5.30978 2.86266V2.95073C5.30978 3.08284 5.41496 3.19123 5.54314 3.19123H6.28924C6.41742 3.19123 6.5226 3.08284 6.5226 2.95073V2.92363C6.5226 2.06326 7.15037 1.30789 7.98521 1.2537C8.89236 1.19611 9.64831 1.93793 9.64831 2.85928V3.85514H7.34758V3.85853H5.22104C4.82663 3.87208 4.50781 4.20064 4.50781 4.61051V8.77688C4.50781 9.19352 4.83649 9.53225 5.24076 9.53225H10.8809C11.2851 9.53225 11.6138 9.19352 11.6138 8.77688V4.61389C11.6171 4.19726 11.2884 3.85853 10.8841 3.85853ZM8.49795 6.88338C8.44207 6.92403 8.42564 6.96806 8.42564 7.03581C8.42892 7.34067 8.42892 7.64552 8.42564 7.95377C8.43221 8.08248 8.36976 8.20443 8.25801 8.26201C7.99836 8.3975 7.7387 8.20781 7.7387 7.95377C7.7387 7.95377 7.7387 7.95377 7.7387 7.95038C7.7387 7.64552 7.7387 7.33728 7.7387 7.03242C7.7387 6.97145 7.72556 6.92742 7.67297 6.88677C7.40345 6.68353 7.31471 6.33464 7.44947 6.0264C7.58094 5.72831 7.89975 5.55218 8.19885 5.61653C8.5341 5.68428 8.76746 5.96543 8.77075 6.30754C8.78061 6.54804 8.68529 6.7445 8.49795 6.88338Z"
        fill="currentColor"
    ></path>
    <path
        d="M8.64062 15.4078V15.8203C8.64062 15.9184 8.71951 15.9996 8.81482 15.9996H11.5067C11.602 15.9996 11.6809 15.9184 11.6809 15.8203V15.4078C11.6809 15.3097 11.602 15.2285 11.5067 15.2285H8.81482C8.71951 15.2285 8.64062 15.3097 8.64062 15.4078Z"
        fill="currentColor"
    ></path>
    <path
        d="M9.04618 13.6354C9.10863 13.7471 9.24996 13.7844 9.35842 13.72L9.93032 13.3779V14.0588C9.93032 14.1875 10.0322 14.2925 10.1571 14.2925C10.282 14.2925 10.3839 14.1875 10.3839 14.0588V13.3779L10.9558 13.72C11.0642 13.7844 11.2056 13.7471 11.268 13.6354C11.3305 13.5236 11.2943 13.3779 11.1859 13.3136L10.6107 12.968L11.1859 12.6225C11.2943 12.5582 11.3305 12.4125 11.268 12.3007C11.2056 12.1889 11.0642 12.1517 10.9558 12.216L10.3839 12.5582V11.8773C10.3839 11.7486 10.282 11.6436 10.1571 11.6436C10.0322 11.6436 9.93032 11.7486 9.93032 11.8773V12.5582L9.35842 12.216C9.24996 12.1517 9.10863 12.1889 9.04618 12.3007C8.98373 12.4125 9.01989 12.5582 9.12835 12.6225L9.70353 12.968L9.12835 13.3136C9.01989 13.3779 8.98373 13.5236 9.04618 13.6354Z"
        fill="currentColor"
    ></path>
    <path
        d="M15.827 15.2285H13.1351C13.0398 15.2285 12.9609 15.3097 12.9609 15.4078V15.8203C12.9609 15.9184 13.0398 15.9996 13.1351 15.9996H15.827C15.9223 15.9996 16.0012 15.9184 16.0012 15.8203V15.4078C16.0012 15.3097 15.9223 15.2285 15.827 15.2285Z"
        fill="currentColor"
    ></path>
    <path
        d="M0.174198 15.9996H2.86605C2.96137 15.9996 3.04025 15.9184 3.04025 15.8203V15.4078C3.04025 15.3097 2.96137 15.2285 2.86605 15.2285H0.174198C0.0788822 15.2285 0 15.3097 0 15.4078V15.8203C0 15.9184 0.0788822 15.9996 0.174198 15.9996Z"
        fill="currentColor"
    ></path>
    <path
        d="M13.368 13.6354C13.4304 13.7471 13.5717 13.7844 13.6802 13.72L14.2521 13.3779V14.0588C14.2521 14.1875 14.354 14.2925 14.4789 14.2925C14.6038 14.2925 14.7057 14.1875 14.7057 14.0588V13.3779L15.2776 13.72C15.386 13.7844 15.5273 13.7471 15.5898 13.6354C15.6522 13.5236 15.6161 13.3779 15.5076 13.3136L14.9324 12.968L15.5076 12.6225C15.6161 12.5582 15.6522 12.4125 15.5898 12.3007C15.5273 12.1889 15.386 12.1517 15.2776 12.216L14.7057 12.5582V11.8773C14.7057 11.7486 14.6038 11.6436 14.4789 11.6436C14.354 11.6436 14.2521 11.7486 14.2521 11.8773V12.5582L13.6802 12.216C13.5717 12.1517 13.4304 12.1889 13.368 12.3007C13.3055 12.4125 13.3417 12.5582 13.4501 12.6225L14.0253 12.968L13.4501 13.3136C13.3417 13.3779 13.3022 13.5236 13.368 13.6354Z"
        fill="currentColor"
    ></path>
</svg>