<svg
    width="16px"
    height="16px"
    viewBox="0 0 16 15"
    fill="none"
    xmlns="http://www.w3.org/2000/svg"
>
    <path
        d="M8.00485 2.76221C7.66239 2.76221 7.38477 3.03983 7.38477 3.38229V7.76825C7.38477 7.97977 7.49258 8.17669 7.67077 8.29065L11.0729 10.4664C11.375 10.6596 11.7776 10.557 11.9504 10.2428L12.0657 10.0331C12.2231 9.74687 12.1314 9.38761 11.8562 9.21175L9.15922 7.48878C8.98089 7.37485 8.87298 7.17785 8.87298 6.96623V3.38229C8.87298 3.03983 8.59536 2.76221 8.25289 2.76221H8.00485Z"
        fill="currentColor"
    ></path>
    <path
        fill-rule="evenodd"
        clip-rule="evenodd"
        d="M15.3801 7.44102C15.3801 11.2081 12.3262 14.2619 8.55912 14.2619C6.34611 14.2619 4.37925 13.208 3.13306 11.5748C3.07067 11.493 2.97442 11.4434 2.87156 11.4434C2.61785 11.4434 2.46708 11.7223 2.6201 11.9247C3.9785 13.7212 6.13324 14.882 8.55912 14.882C12.6687 14.882 16.0001 11.5506 16.0001 7.44102C16.0001 3.33146 12.6687 0 8.55912 0C5.12634 0 2.23648 2.32453 1.37775 5.48539C1.32541 5.67806 1.47435 5.86265 1.674 5.86265C1.8192 5.86265 1.94464 5.76254 1.98326 5.62258C2.7791 2.73827 5.42174 0.620085 8.55912 0.620085C12.3262 0.620085 15.3801 3.67392 15.3801 7.44102Z"
        fill="currentColor"
    ></path>
    <path
        fill-rule="evenodd"
        clip-rule="evenodd"
        d="M3.95976 5.09972C3.89123 4.94332 3.70832 4.8714 3.55135 4.94018L1.56353 5.81123L0.692477 3.82341C0.62394 3.667 0.441028 3.59509 0.284065 3.66387C0.127103 3.73265 0.0559889 3.91587 0.124526 4.07228L1.12001 6.34408C1.18855 6.50049 1.37146 6.5724 1.52842 6.50362L3.80023 5.50813C3.95719 5.43935 4.0283 5.25613 3.95976 5.09972Z"
        fill="currentColor"
    ></path>
</svg>