<svg
    width="16"
    height="16"
    viewBox="0 0 16 16"
    fill="none"
    xmlns="http://www.w3.org/2000/svg"
>
    <path
        d="M15.2329 6.4H14.2466C14.0274 6.4 13.8082 6.28966 13.6986 6.06897L13.2603 5.07586C13.1507 4.85517 13.2603 4.63448 13.3699 4.52414L14.0274 3.86207C14.2466 3.64138 14.2466 3.31034 14.0274 3.08966L12.6027 1.65517C12.3836 1.43448 12.0548 1.43448 11.8356 1.65517L11.1781 2.31724C11.1781 2.42759 10.9589 2.53793 10.7397 2.42759L9.75342 1.98621C9.53425 1.98621 9.42466 1.76552 9.42466 1.54483V0.551724C9.42466 0.22069 9.20548 0 8.87671 0H6.90411C6.57534 0 6.35616 0.22069 6.35616 0.551724V1.54483C6.35616 1.76552 6.24658 1.98621 6.0274 2.09655L5.0411 2.42759C4.82192 2.53793 4.60274 2.42759 4.49315 2.31724L3.72603 1.65517C3.50685 1.43448 3.17808 1.43448 2.9589 1.65517L1.64384 2.97931C1.42466 3.2 1.42466 3.53103 1.64384 3.75172L2.30137 4.41379C2.41096 4.52414 2.52055 4.85517 2.41096 4.96552L1.9726 6.06897C1.9726 6.28966 1.75342 6.4 1.53425 6.4H0.547945C0.219178 6.4 0 6.62069 0 6.95172V8.93793C0 9.26897 0.219178 9.48966 0.547945 9.48966H1.53425C1.75342 9.48966 1.9726 9.6 2.08219 9.82069L2.52055 10.8138C2.63014 11.0345 2.52055 11.2552 2.41096 11.3655L1.75342 12.0276C1.53425 12.2483 1.53425 12.5793 1.75342 12.8L3.17808 14.2345C3.39726 14.4552 3.72603 14.4552 3.94521 14.2345L4.60274 13.5724C4.71233 13.4621 5.0411 13.3517 5.15068 13.4621L6.13699 13.9034C6.35616 14.0138 6.46575 14.2345 6.46575 14.4552V15.4483C6.46575 15.7793 6.68493 16 7.0137 16H8.9863C9.31507 16 9.53425 15.7793 9.53425 15.4483V14.3448C9.53425 14.1241 9.64384 13.9034 9.86301 13.7931L10.8493 13.3517C11.0685 13.2414 11.2877 13.3517 11.3973 13.4621L12.0548 14.1241C12.274 14.3448 12.6027 14.3448 12.8219 14.1241L14.2466 12.6897C14.4658 12.469 14.4658 12.1379 14.2466 11.9172L13.589 11.2552C13.4795 11.1448 13.3699 10.8138 13.4795 10.7034L13.9178 9.71035C14.0274 9.48966 14.2466 9.37931 14.4658 9.37931H15.4521C15.7808 9.37931 16 9.15862 16 8.82759V6.95172C16 6.66667 15.6667 6.4 15.2329 6.4ZM7.89041 11.2552C6.0274 11.2552 4.60274 9.71035 4.60274 7.94483C4.60274 6.06897 6.13699 4.63448 7.89041 4.63448C9.64384 4.63448 11.1781 6.17931 11.1781 7.94483C11.1781 9.82069 9.75342 11.2552 7.89041 11.2552Z"
        fill="white"
    ></path>
</svg>